<?xml version="1.0"?>

<svg xmlns="http://www.w3.org/2000/svg" viewBox="0 0 32 32" width="64" height="64" shape-rendering="crispEdges" style="image-rendering:pixelated;">
  <defs>
    
  </defs>

  
  <g class="breath">
    <rect x="4" y="14" width="2" height="2" fill="#a8c8e8" opacity=".25"></rect>
    <rect x="26" y="14" width="2" height="2" fill="#a8c8e8" opacity=".25"></rect>
    <rect x="14" y="3" width="4" height="1" fill="#e8f0f8" opacity=".35"></rect>
    <rect x="14" y="28" width="4" height="1" fill="#e8f0f8" opacity=".35"></rect>
    <rect x="3" y="15" width="1" height="2" fill="#a8c8e8" opacity=".18"></rect>
    <rect x="28" y="15" width="1" height="2" fill="#a8c8e8" opacity=".18"></rect>
  </g>

  
  <g opacity="0.85">
    <rect x="6" y="23" width="20" height="1" fill="#e8f0f8" opacity=".7"></rect>
    <rect x="4" y="24" width="24" height="1" fill="#e8f0f8" opacity=".55"></rect>
    <rect x="6" y="25" width="20" height="1" fill="#c8d8ea" opacity=".45"></rect>
    <rect x="9" y="22" width="3" height="1" fill="#e8f0f8" opacity=".4"></rect>
    <rect x="19" y="22" width="4" height="1" fill="#e8f0f8" opacity=".4"></rect>
  </g>

  
  
  <rect x="14" y="4" width="4" height="1" fill="#5a7ba8"></rect>
  <rect x="13" y="5" width="1" height="1" fill="#5a7ba8"></rect>
  <rect x="18" y="5" width="1" height="1" fill="#5a7ba8"></rect>
  <rect x="14" y="5" width="4" height="1" fill="#9ec0e0"></rect>
  <rect x="13" y="6" width="6" height="1" fill="#5a7ba8"></rect>
  <rect x="14" y="6" width="4" height="1" fill="#9ec0e0"></rect>

  
  <rect x="13" y="7" width="1" height="3" fill="#5a7ba8"></rect>
  <rect x="18" y="7" width="1" height="3" fill="#5a7ba8"></rect>
  <rect x="14" y="7" width="4" height="3" fill="#c4dcee"></rect>
  <rect x="14" y="7" width="1" height="3" fill="#e8f0f8"></rect>

  
  <rect x="11" y="10" width="2" height="1" fill="#5a7ba8"></rect>
  <rect x="19" y="10" width="2" height="1" fill="#5a7ba8"></rect>
  <rect x="10" y="11" width="1" height="2" fill="#5a7ba8"></rect>
  <rect x="21" y="11" width="1" height="2" fill="#5a7ba8"></rect>
  <rect x="9" y="13" width="1" height="6" fill="#5a7ba8"></rect>
  <rect x="22" y="13" width="1" height="6" fill="#5a7ba8"></rect>
  <rect x="10" y="19" width="1" height="2" fill="#5a7ba8"></rect>
  <rect x="21" y="19" width="1" height="2" fill="#5a7ba8"></rect>
  <rect x="11" y="21" width="2" height="1" fill="#5a7ba8"></rect>
  <rect x="19" y="21" width="2" height="1" fill="#5a7ba8"></rect>
  <rect x="13" y="22" width="6" height="1" fill="#5a7ba8"></rect>

  
  <rect x="13" y="10" width="6" height="1" fill="#c4dcee"></rect>
  <rect x="11" y="11" width="10" height="2" fill="#c4dcee"></rect>
  <rect x="10" y="13" width="12" height="6" fill="#c4dcee"></rect>
  <rect x="11" y="19" width="10" height="2" fill="#c4dcee"></rect>
  <rect x="13" y="21" width="6" height="1" fill="#c4dcee"></rect>

  
  <rect x="11" y="11" width="2" height="1" fill="#e8f0f8"></rect>
  <rect x="10" y="13" width="1" height="3" fill="#e8f0f8"></rect>
  <rect x="11" y="13" width="1" height="1" fill="#ffffff"></rect>
  <rect x="12" y="11" width="1" height="1" fill="#ffffff"></rect>

  
  <g class="breath">
    <rect x="11" y="16" width="10" height="1" fill="#9b7fd4" opacity=".7"></rect>
    <rect x="11" y="17" width="10" height="2" fill="#7f5fc0" opacity=".85"></rect>
    <rect x="11" y="19" width="10" height="1" fill="#6b4dab" opacity=".9"></rect>
    <rect x="11" y="20" width="10" height="1" fill="#5a3d96" opacity=".85"></rect>
    <rect x="11" y="21" width="10" height="1" fill="#4a2e7e" opacity=".75"></rect>
    
    <rect x="13" y="16" width="2" height="1" fill="#c8b0e8"></rect>
    <rect x="18" y="16" width="1" height="1" fill="#e8d8f8"></rect>
    <rect x="11" y="20" width="1" height="1" fill="#9b7fd4"></rect>
  </g>

  
  <rect x="14" y="18" width="1" height="1" fill="#f0d080"></rect>
  <rect x="17" y="19" width="1" height="1" fill="#f0d080"></rect>
  <rect x="15" y="20" width="1" height="1" fill="#e8f0f8"></rect>

  
  <g class="float-particles">
    <rect x="15" y="2" width="1" height="1" fill="#f0d080"></rect>
    <rect x="17" y="1" width="1" height="1" fill="#e8d8f8"></rect>
    <rect x="14" y="0" width="1" height="1" fill="#9b7fd4" opacity=".7"></rect>
    <rect x="19" y="3" width="1" height="1" fill="#f0d080" opacity=".7"></rect>
    <rect x="13" y="2" width="1" height="1" fill="#a8c8e8" opacity=".55"></rect>
  </g>
</svg>