<?xml version="1.0"?>

<svg xmlns="http://www.w3.org/2000/svg" viewBox="0 0 100 62" width="800" height="500" shape-rendering="crispEdges" style="image-rendering:pixelated;">

  
  <rect x="0" y="0" width="100" height="3" fill="#2a1f4a"></rect>
  <rect x="0" y="3" width="100" height="3" fill="#3a2966"></rect>
  <rect x="0" y="6" width="100" height="3" fill="#4a3a7a"></rect>
  <rect x="0" y="9" width="100" height="3" fill="#5a5b8b"></rect>

  
  <rect x="8" y="2" width="1" height="1" fill="#f8e8a0"></rect>
  <rect x="22" y="4" width="1" height="1" fill="#e8d8f8"></rect>
  <rect x="37" y="1" width="1" height="1" fill="#f8e8a0" opacity=".85"></rect>
  <rect x="48" y="6" width="1" height="1" fill="#e8d8f8" opacity=".7"></rect>
  <rect x="63" y="3" width="1" height="1" fill="#f0d080"></rect>
  <rect x="74" y="2" width="1" height="1" fill="#e8d8f8"></rect>
  <rect x="86" y="5" width="1" height="1" fill="#f8e8a0" opacity=".8"></rect>
  <rect x="93" y="3" width="1" height="1" fill="#e8d8f8"></rect>
  <rect x="15" y="7" width="1" height="1" fill="#9b7fd4" opacity=".7"></rect>
  <rect x="56" y="8" width="1" height="1" fill="#c8b0e8" opacity=".6"></rect>

  
  <g opacity=".82">
    <rect x="78" y="4" width="6" height="1" fill="#e8d8f8"></rect>
    <rect x="77" y="5" width="8" height="1" fill="#f0e0f8"></rect>
    <rect x="76" y="6" width="9" height="2" fill="#f8e8e0"></rect>
    <rect x="77" y="8" width="8" height="1" fill="#e8d8f8"></rect>
    <rect x="78" y="9" width="6" height="1" fill="#9b7fd4" opacity=".5"></rect>
    
    <rect x="74" y="6" width="2" height="2" fill="#9b7fd4" opacity=".3"></rect>
    <rect x="85" y="6" width="2" height="2" fill="#9b7fd4" opacity=".3"></rect>
  </g>

  
  
  <rect x="0" y="12" width="20" height="2" fill="#4a3a7a"></rect>
  <rect x="20" y="11" width="12" height="3" fill="#4a3a7a"></rect>
  <rect x="32" y="13" width="15" height="2" fill="#4a3a7a"></rect>
  <rect x="47" y="11" width="10" height="3" fill="#4a3a7a"></rect>
  <rect x="57" y="13" width="18" height="2" fill="#4a3a7a"></rect>
  <rect x="75" y="12" width="15" height="3" fill="#4a3a7a"></rect>
  <rect x="90" y="13" width="10" height="2" fill="#4a3a7a"></rect>

  
  <rect x="22" y="10" width="2" height="1" fill="#6a5a9a"></rect>
  <rect x="49" y="10" width="2" height="1" fill="#6a5a9a"></rect>
  <rect x="78" y="11" width="3" height="1" fill="#6a5a9a"></rect>

  
  <rect x="0" y="14" width="100" height="3" fill="#5a4a8a"></rect>
  
  <rect x="10" y="13" width="6" height="1" fill="#5a4a8a"></rect>
  <rect x="28" y="13" width="4" height="1" fill="#5a4a8a"></rect>
  <rect x="42" y="13" width="6" height="1" fill="#5a4a8a"></rect>
  <rect x="62" y="12" width="5" height="2" fill="#5a4a8a"></rect>
  <rect x="82" y="13" width="6" height="1" fill="#5a4a8a"></rect>

  
  <rect x="14" y="15" width="2" height="2" fill="#3a2e5e"></rect>
  <rect x="13" y="15" width="1" height="1" fill="#3a2e5e"></rect>
  <rect x="16" y="15" width="1" height="1" fill="#3a2e5e"></rect>
  <rect x="44" y="15" width="3" height="2" fill="#3a2e5e"></rect>
  <rect x="64" y="14" width="2" height="3" fill="#3a2e5e"></rect>
  <rect x="84" y="15" width="2" height="2" fill="#3a2e5e"></rect>
  <rect x="86" y="15" width="1" height="1" fill="#3a2e5e"></rect>

  
  <rect x="15" y="16" width="1" height="1" fill="#f0d080" opacity=".75"></rect>
  <rect x="45" y="16" width="1" height="1" fill="#f0d080" opacity=".6"></rect>
  <rect x="64" y="16" width="1" height="1" fill="#f0d080" opacity=".75"></rect>
  <rect x="85" y="16" width="1" height="1" fill="#f0d080" opacity=".55"></rect>

  
  <rect x="0" y="17" width="100" height="1" fill="#7a8ec0" opacity=".85"></rect>
  <rect x="0" y="18" width="100" height="1" fill="#8a9ed0" opacity=".75"></rect>
  <rect x="0" y="19" width="100" height="2" fill="#9aaed8" opacity=".55"></rect>
  <rect x="0" y="21" width="100" height="2" fill="#a8c8e8" opacity=".35"></rect>

  
  
  <rect x="0" y="40" width="100" height="2" fill="#c8d8ea"></rect>
  <rect x="0" y="42" width="100" height="3" fill="#d8e4ee"></rect>
  <rect x="0" y="45" width="100" height="2" fill="#e8f0f8"></rect>

  
  <g opacity=".95">
    <rect x="2" y="38" width="14" height="2" fill="#c8d8ea"></rect>
    <rect x="4" y="37" width="10" height="1" fill="#d8e4ee"></rect>
    <rect x="6" y="36" width="6" height="1" fill="#e8f0f8"></rect>

    <rect x="20" y="39" width="22" height="1" fill="#c8d8ea"></rect>
    <rect x="22" y="38" width="18" height="1" fill="#d8e4ee"></rect>

    <rect x="56" y="39" width="20" height="1" fill="#c8d8ea"></rect>
    <rect x="58" y="38" width="16" height="1" fill="#d8e4ee"></rect>
    <rect x="62" y="37" width="8" height="1" fill="#e8f0f8"></rect>

    <rect x="82" y="38" width="16" height="2" fill="#c8d8ea"></rect>
    <rect x="84" y="37" width="12" height="1" fill="#d8e4ee"></rect>
    <rect x="86" y="36" width="8" height="1" fill="#e8f0f8"></rect>
  </g>

  
  <rect x="32" y="43" width="36" height="2" fill="#7d9ec8"></rect>
  <rect x="32" y="42" width="36" height="1" fill="#a8c8e8"></rect>
  <rect x="33" y="43" width="34" height="1" fill="#c4dcee"></rect>
  <rect x="31" y="44" width="38" height="1" fill="#5a7ba8"></rect>

  

  
  
  <rect x="42" y="35" width="16" height="7" fill="#3a5380"></rect>
  
  <rect x="42" y="35" width="16" height="1" fill="#5a7ba8"></rect>
  <rect x="42" y="41" width="16" height="1" fill="#5a7ba8"></rect>
  <rect x="42" y="35" width="1" height="7" fill="#5a7ba8"></rect>
  <rect x="57" y="35" width="1" height="7" fill="#5a7ba8"></rect>
  
  <rect x="41" y="34" width="18" height="1" fill="#5a7ba8"></rect>
  <rect x="42" y="34" width="16" height="1" fill="#9ec0e0"></rect>

  
  <rect x="44" y="38" width="12" height="3" fill="#9b7fd4" opacity=".75"></rect>
  <rect x="44" y="37" width="12" height="1" fill="#c8b0e8" opacity=".7"></rect>
  
  <rect x="49" y="38" width="2" height="2" fill="#f0d080"></rect>
  <rect x="48" y="39" width="4" height="1" fill="#f8e8a0" opacity=".8"></rect>

  
  <rect x="44" y="36" width="3" height="1" fill="#7d9ec8"></rect>
  <rect x="53" y="36" width="3" height="1" fill="#7d9ec8"></rect>

  
  
  <rect x="48" y="33" width="4" height="1" fill="#5a7ba8"></rect>
  <rect x="48" y="32" width="4" height="1" fill="#7d9ec8"></rect>
  <rect x="48" y="31" width="4" height="1" fill="#5a7ba8"></rect>

  
  <rect x="44" y="26" width="12" height="1" fill="#5a7ba8"></rect>
  <rect x="42" y="27" width="2" height="1" fill="#5a7ba8"></rect>
  <rect x="56" y="27" width="2" height="1" fill="#5a7ba8"></rect>
  <rect x="41" y="28" width="1" height="2" fill="#5a7ba8"></rect>
  <rect x="58" y="28" width="1" height="2" fill="#5a7ba8"></rect>
  <rect x="42" y="30" width="2" height="1" fill="#5a7ba8"></rect>
  <rect x="56" y="30" width="2" height="1" fill="#5a7ba8"></rect>
  <rect x="44" y="31" width="4" height="1" fill="#5a7ba8"></rect>
  <rect x="52" y="31" width="4" height="1" fill="#5a7ba8"></rect>

  
  <rect x="44" y="27" width="12" height="1" fill="#c4dcee" opacity=".75"></rect>
  <rect x="42" y="28" width="16" height="2" fill="#c4dcee" opacity=".75"></rect>
  <rect x="44" y="30" width="12" height="1" fill="#c4dcee" opacity=".75"></rect>

  
  <rect x="44" y="27" width="2" height="1" fill="#e8f0f8"></rect>
  <rect x="43" y="28" width="1" height="2" fill="#e8f0f8"></rect>
  <rect x="45" y="28" width="1" height="1" fill="#ffffff"></rect>

  
  <rect x="43" y="29" width="14" height="2" fill="#9b7fd4" opacity=".85"></rect>
  <rect x="44" y="30" width="12" height="1" fill="#7f5fc0"></rect>
  <rect x="45" y="29" width="2" height="1" fill="#c8b0e8"></rect>
  <rect x="51" y="30" width="1" height="1" fill="#f0d080"></rect>
  <rect x="47" y="30" width="1" height="1" fill="#e8d8f8"></rect>

  
  
  <rect x="52" y="24" width="1" height="2" fill="#7d9ec8"></rect>
  <rect x="51" y="24" width="2" height="1" fill="#5a7ba8"></rect>
  <rect x="52" y="25" width="1" height="1" fill="#c4dcee"></rect>
  
  <rect x="52" y="23" width="6" height="1" fill="#5a7ba8"></rect>
  <rect x="52" y="23" width="6" height="1" fill="#7d9ec8"></rect>
  <rect x="52" y="23" width="1" height="1" fill="#c4dcee"></rect>
  
  <rect x="57" y="24" width="1" height="6" fill="#7d9ec8"></rect>
  <rect x="58" y="24" width="1" height="6" fill="#5a7ba8"></rect>
  <rect x="57" y="24" width="1" height="1" fill="#c4dcee"></rect>

  
  <rect x="57" y="25" width="2" height="1" fill="#3a5380"></rect>
  <rect x="57" y="27" width="2" height="1" fill="#3a5380"></rect>
  <rect x="57" y="29" width="2" height="1" fill="#3a5380"></rect>

  
  <rect x="59" y="30" width="6" height="1" fill="#5a7ba8"></rect>
  <rect x="59" y="31" width="6" height="1" fill="#7d9ec8"></rect>
  <rect x="59" y="32" width="6" height="1" fill="#5a7ba8"></rect>
  
  <rect x="65" y="32" width="1" height="1" fill="#f0d080"></rect>
  <rect x="66" y="33" width="1" height="1" fill="#f8e8a0"></rect>

  
  <rect x="40" y="33" width="1" height="9" fill="#9b7fd4" opacity=".25"></rect>
  <rect x="59" y="33" width="1" height="9" fill="#9b7fd4" opacity=".25"></rect>
  <rect x="42" y="42" width="16" height="1" fill="#9b7fd4" opacity=".3"></rect>

  

  
  <g>
    
    <rect x="8" y="22" width="5" height="6" fill="#e8f0f8"></rect>
    <rect x="8" y="22" width="5" height="1" fill="#a8c8e8"></rect>
    <rect x="12" y="22" width="1" height="1" fill="#7d9ec8"></rect>
    <rect x="13" y="23" width="1" height="5" fill="#7d9ec8"></rect>
    <rect x="8" y="28" width="5" height="1" fill="#7d9ec8"></rect>
    
    <rect x="9" y="24" width="3" height="1" fill="#5a7ba8"></rect>
    <rect x="9" y="26" width="2" height="1" fill="#5a7ba8"></rect>
    <rect x="9" y="27" width="3" height="1" fill="#5a7ba8"></rect>

    
    <rect x="11" y="19" width="5" height="6" fill="#e8f0f8" opacity=".88"></rect>
    <rect x="11" y="19" width="5" height="1" fill="#a8c8e8"></rect>
    <rect x="15" y="19" width="1" height="1" fill="#7d9ec8"></rect>
    <rect x="12" y="21" width="3" height="1" fill="#5a7ba8" opacity=".7"></rect>
    <rect x="12" y="23" width="2" height="1" fill="#5a7ba8" opacity=".7"></rect>
  </g>

  
  <g>
    
    <rect x="4" y="32" width="3" height="3" fill="#a8c8e8"></rect>
    <rect x="4" y="32" width="3" height="1" fill="#c4dcee"></rect>
    <rect x="5" y="35" width="1" height="2" fill="#a8c8e8"></rect>
    <rect x="4" y="37" width="3" height="1" fill="#a8c8e8"></rect>
    
    <rect x="9" y="33" width="1" height="3" fill="#9b7fd4"></rect>
    <rect x="11" y="31" width="1" height="6" fill="#9b7fd4"></rect>
    <rect x="13" y="34" width="1" height="2" fill="#9b7fd4"></rect>
    <rect x="15" y="30" width="1" height="8" fill="#9b7fd4"></rect>
    <rect x="17" y="32" width="1" height="5" fill="#9b7fd4"></rect>
    <rect x="19" y="34" width="1" height="2" fill="#9b7fd4"></rect>
    <rect x="21" y="29" width="1" height="9" fill="#9b7fd4"></rect>
    <rect x="23" y="32" width="1" height="5" fill="#9b7fd4"></rect>
    <rect x="25" y="33" width="1" height="3" fill="#9b7fd4"></rect>
    <rect x="27" y="31" width="1" height="6" fill="#9b7fd4"></rect>
    <rect x="29" y="34" width="1" height="2" fill="#9b7fd4"></rect>
    <rect x="31" y="33" width="1" height="3" fill="#c8b0e8"></rect>
    
    <rect x="33" y="33" width="2" height="3" fill="#f0d080" opacity=".75"></rect>
    <rect x="35" y="34" width="2" height="1" fill="#f8e8a0"></rect>
    <rect x="37" y="34" width="2" height="1" fill="#f0d080" opacity=".8"></rect>
    <rect x="39" y="34" width="2" height="1" fill="#f0d080" opacity=".55"></rect>
  </g>

  
  <g>
    <rect x="3" y="42" width="9" height="4" fill="#a8c8e8"></rect>
    <rect x="3" y="42" width="9" height="1" fill="#c4dcee"></rect>
    <rect x="3" y="45" width="1" height="1" fill="#a8c8e8"></rect>
    <rect x="4" y="46" width="1" height="1" fill="#a8c8e8"></rect>
    
    <rect x="5" y="43" width="1" height="1" fill="#3a5380"></rect>
    <rect x="7" y="43" width="1" height="1" fill="#3a5380"></rect>
    <rect x="9" y="43" width="1" height="1" fill="#3a5380"></rect>

    
    <rect x="14" y="44" width="11" height="4" fill="#9b7fd4" opacity=".85"></rect>
    <rect x="14" y="44" width="11" height="1" fill="#c8b0e8"></rect>
    <rect x="24" y="47" width="1" height="1" fill="#9b7fd4"></rect>
    <rect x="25" y="48" width="1" height="1" fill="#9b7fd4"></rect>
    <rect x="16" y="45" width="6" height="1" fill="#e8d8f8"></rect>
    <rect x="16" y="46" width="4" height="1" fill="#e8d8f8"></rect>
  </g>

  
  <g opacity=".75">
    
    <rect x="14" y="25" width="2" height="1" fill="#f0d080"></rect>
    <rect x="17" y="26" width="2" height="1" fill="#f0d080" opacity=".85"></rect>
    <rect x="20" y="27" width="3" height="1" fill="#f0d080" opacity=".7"></rect>
    <rect x="24" y="28" width="3" height="1" fill="#f0d080" opacity=".55"></rect>
    <rect x="28" y="29" width="4" height="1" fill="#f0d080" opacity=".4"></rect>
    <rect x="33" y="30" width="5" height="1" fill="#f0d080" opacity=".3"></rect>

    
    <rect x="26" y="46" width="3" height="1" fill="#9b7fd4" opacity=".7"></rect>
    <rect x="30" y="44" width="4" height="1" fill="#9b7fd4" opacity=".6"></rect>
    <rect x="34" y="42" width="5" height="1" fill="#9b7fd4" opacity=".5"></rect>
    <rect x="40" y="40" width="3" height="1" fill="#9b7fd4" opacity=".4"></rect>
  </g>

  

  
  <rect x="72" y="44" width="14" height="1" fill="#7d9ec8"></rect>
  <rect x="73" y="43" width="12" height="1" fill="#a8c8e8"></rect>
  <rect x="74" y="42" width="10" height="1" fill="#c4dcee"></rect>

  
  <rect x="70" y="45" width="18" height="1" fill="#f0d080" opacity=".4"></rect>
  <rect x="68" y="46" width="22" height="1" fill="#f0d080" opacity=".25"></rect>

  
  
  <rect x="78" y="29" width="4" height="4" fill="#f8e8a0"></rect>
  <rect x="78" y="29" width="4" height="1" fill="#fffae0"></rect>
  <rect x="78" y="32" width="4" height="1" fill="#f0d080"></rect>
  
  <rect x="77" y="29" width="1" height="3" fill="#f0d080" opacity=".6"></rect>
  <rect x="82" y="29" width="1" height="3" fill="#f0d080" opacity=".6"></rect>
  <rect x="79" y="28" width="2" height="1" fill="#f8e8a0" opacity=".55"></rect>

  
  <rect x="79" y="31" width="1" height="1" fill="#9b7fd4"></rect>
  <rect x="81" y="31" width="1" height="1" fill="#9b7fd4"></rect>

  
  <rect x="79" y="33" width="2" height="1" fill="#f0d080"></rect>
  <rect x="76" y="34" width="8" height="1" fill="#f8e8a0"></rect>

  
  <rect x="77" y="35" width="6" height="5" fill="#f8e8a0"></rect>
  <rect x="77" y="35" width="6" height="1" fill="#fffae0"></rect>
  <rect x="77" y="39" width="6" height="1" fill="#f0d080"></rect>
  
  <rect x="79" y="36" width="2" height="2" fill="#9b7fd4"></rect>
  <rect x="79" y="36" width="1" height="1" fill="#c8b0e8"></rect>

  
  <rect x="77" y="40" width="2" height="2" fill="#f0d080"></rect>
  <rect x="81" y="40" width="2" height="2" fill="#f0d080"></rect>
  <rect x="77" y="41" width="2" height="1" fill="#d8b860"></rect>
  <rect x="81" y="41" width="2" height="1" fill="#d8b860"></rect>

  
  <rect x="75" y="30" width="1" height="12" fill="#f0d080" opacity=".3"></rect>
  <rect x="84" y="30" width="1" height="12" fill="#f0d080" opacity=".3"></rect>
  <rect x="76" y="28" width="8" height="1" fill="#f0d080" opacity=".25"></rect>

  
  <g>
    
    <rect x="88" y="22" width="6" height="4" fill="#e8f0f8"></rect>
    <rect x="88" y="22" width="6" height="1" fill="#9b7fd4"></rect>
    <rect x="89" y="24" width="4" height="1" fill="#5a7ba8"></rect>
    <rect x="89" y="25" width="3" height="1" fill="#5a7ba8"></rect>
    
    <rect x="92" y="32" width="6" height="4" fill="#e8f0f8"></rect>
    <rect x="92" y="32" width="6" height="1" fill="#9b7fd4"></rect>
    <rect x="93" y="34" width="4" height="1" fill="#5a7ba8"></rect>
    
    <rect x="93" y="35" width="2" height="1" fill="#f0d080"></rect>
  </g>

  
  <g>
    <rect x="65" y="33" width="2" height="1" fill="#f0d080"></rect>
    <rect x="67" y="33" width="2" height="1" fill="#f0d080" opacity=".85"></rect>
    <rect x="69" y="33" width="2" height="1" fill="#f0d080" opacity=".7"></rect>
    <rect x="71" y="33" width="2" height="1" fill="#f0d080" opacity=".55"></rect>
    <rect x="73" y="33" width="2" height="1" fill="#f0d080" opacity=".4"></rect>
    
    <rect x="76" y="32" width="1" height="1" fill="#f8e8a0"></rect>
    <rect x="77" y="36" width="1" height="1" fill="#f8e8a0" opacity=".75"></rect>
    <rect x="83" y="37" width="1" height="1" fill="#f8e8a0" opacity=".7"></rect>
  </g>

  

  
  <g opacity=".82">
    
    <rect x="24" y="14" width="2" height="2" fill="#9b7fd4"></rect>
    <rect x="31" y="12" width="2" height="2" fill="#9b7fd4"></rect>
    <rect x="32" y="17" width="2" height="2" fill="#9b7fd4"></rect>
    
    <rect x="24" y="14" width="1" height="1" fill="#e8d8f8"></rect>
    <rect x="31" y="12" width="1" height="1" fill="#e8d8f8"></rect>
    <rect x="32" y="17" width="1" height="1" fill="#e8d8f8"></rect>
    
    <rect x="26" y="14" width="5" height="1" fill="#9b7fd4" opacity=".5"></rect>
    <rect x="26" y="15" width="1" height="1" fill="#9b7fd4" opacity=".4"></rect>
    <rect x="27" y="16" width="1" height="1" fill="#9b7fd4" opacity=".4"></rect>
    <rect x="28" y="17" width="4" height="1" fill="#9b7fd4" opacity=".5"></rect>
    <rect x="32" y="14" width="1" height="3" fill="#9b7fd4" opacity=".5"></rect>
  </g>

  
  <g opacity=".75">
    <rect x="64" y="12" width="2" height="2" fill="#a8c8e8"></rect>
    <rect x="70" y="9" width="2" height="2" fill="#a8c8e8"></rect>
    <rect x="71" y="15" width="2" height="2" fill="#a8c8e8"></rect>
    <rect x="64" y="12" width="1" height="1" fill="#e8f0f8"></rect>
    <rect x="70" y="9" width="1" height="1" fill="#e8f0f8"></rect>
    <rect x="66" y="13" width="4" height="1" fill="#a8c8e8" opacity=".5"></rect>
    <rect x="65" y="13" width="1" height="2" fill="#a8c8e8" opacity=".4"></rect>
    <rect x="66" y="15" width="5" height="1" fill="#a8c8e8" opacity=".5"></rect>
    <rect x="71" y="11" width="1" height="4" fill="#a8c8e8" opacity=".5"></rect>
  </g>

  
  <g opacity=".7">
    
    <rect x="3" y="51" width="1" height="1" fill="#9b7fd4"></rect>
    <rect x="3" y="52" width="1" height="2" fill="#9b7fd4"></rect>
    <rect x="3" y="54" width="1" height="1" fill="#9b7fd4"></rect>
    <rect x="7" y="51" width="1" height="1" fill="#9b7fd4"></rect>
    <rect x="7" y="52" width="1" height="2" fill="#9b7fd4"></rect>
    <rect x="7" y="54" width="1" height="1" fill="#9b7fd4"></rect>
    <rect x="4" y="52" width="3" height="1" fill="#a8c8e8" opacity=".7"></rect>
    <rect x="4" y="53" width="3" height="1" fill="#a8c8e8" opacity=".7"></rect>

    
    <rect x="36" y="3" width="1" height="1" fill="#a8c8e8"></rect>
    <rect x="35" y="4" width="1" height="1" fill="#a8c8e8"></rect>
    <rect x="36" y="5" width="1" height="1" fill="#a8c8e8"></rect>
    <rect x="40" y="3" width="1" height="1" fill="#a8c8e8"></rect>
    <rect x="41" y="4" width="1" height="1" fill="#a8c8e8"></rect>
    <rect x="40" y="5" width="1" height="1" fill="#a8c8e8"></rect>
    <rect x="37" y="4" width="3" height="1" fill="#a8c8e8" opacity=".5"></rect>

    
    <rect x="92" y="50" width="1" height="3" fill="#9b7fd4"></rect>
    <rect x="92" y="50" width="2" height="1" fill="#9b7fd4"></rect>
    <rect x="92" y="52" width="2" height="1" fill="#9b7fd4"></rect>
    <rect x="96" y="50" width="1" height="3" fill="#9b7fd4"></rect>
    <rect x="95" y="50" width="2" height="1" fill="#9b7fd4"></rect>
    <rect x="95" y="52" width="2" height="1" fill="#9b7fd4"></rect>
  </g>

  
  <g>
    <rect x="2" y="14" width="1" height="1" fill="#f0d080"></rect>
    <rect x="44" y="15" width="1" height="1" fill="#f0d080"></rect>
    <rect x="60" y="20" width="1" height="1" fill="#f8e8a0"></rect>
    <rect x="38" y="22" width="1" height="1" fill="#f0d080"></rect>
    <rect x="22" y="36" width="1" height="1" fill="#f8e8a0"></rect>
    <rect x="50" y="48" width="1" height="1" fill="#f0d080"></rect>
    <rect x="69" y="20" width="1" height="1" fill="#e8d8f8"></rect>
    <rect x="11" y="48" width="1" height="1" fill="#c8b0e8"></rect>
    <rect x="93" y="40" width="1" height="1" fill="#f8e8a0"></rect>
    <rect x="6" y="38" width="1" height="1" fill="#e8d8f8"></rect>
    <rect x="55" y="6" width="1" height="1" fill="#f0d080"></rect>
    <rect x="20" y="48" width="1" height="1" fill="#f0d080" opacity=".7"></rect>
    <rect x="83" y="48" width="1" height="1" fill="#9b7fd4" opacity=".7"></rect>
  </g>

  
  <g opacity=".9">
    <rect x="0" y="48" width="100" height="2" fill="#d8e4ee"></rect>
    <rect x="0" y="50" width="100" height="3" fill="#c8d8ea"></rect>
    <rect x="0" y="53" width="100" height="3" fill="#a8c8e8"></rect>
    <rect x="0" y="56" width="100" height="6" fill="#7a8ec0"></rect>
  </g>

  
  <g opacity=".95">
    <rect x="0" y="46" width="14" height="1" fill="#e8f0f8"></rect>
    <rect x="2" y="45" width="10" height="1" fill="#e8f0f8"></rect>
    <rect x="4" y="44" width="6" height="1" fill="#f0f4f8"></rect>

    <rect x="34" y="47" width="20" height="1" fill="#e8f0f8"></rect>
    <rect x="36" y="46" width="16" height="1" fill="#e8f0f8"></rect>
    <rect x="40" y="45" width="8" height="1" fill="#f0f4f8"></rect>

    <rect x="74" y="47" width="18" height="1" fill="#e8f0f8"></rect>
    <rect x="76" y="46" width="14" height="1" fill="#e8f0f8"></rect>
    <rect x="80" y="45" width="6" height="1" fill="#f0f4f8"></rect>
  </g>

  
  <rect x="0" y="58" width="100" height="1" fill="#6a7eb0" opacity=".5"></rect>
  <rect x="0" y="60" width="100" height="1" fill="#5a6ea0" opacity=".4"></rect>

  
  <rect x="0" y="0" width="100" height="1" fill="#1a0f2a" opacity=".5"></rect>
</svg>