<svg viewBox="0 0 1600 1000" xmlns="http://www.w3.org/2000/svg" preserveAspectRatio="xMidYMid slice" aria-label="小梅桩庭院">
  <defs>
    <linearGradient id="xz-sky" x1="0" y1="0" x2="0" y2="1">
      <stop offset="0%" stop-color="#f5ecd7"/>
      <stop offset="50%" stop-color="#ead9b6"/>
      <stop offset="100%" stop-color="#d6c194"/>
    </linearGradient>
    <linearGradient id="xz-mtn" x1="0" y1="0" x2="0" y2="1">
      <stop offset="0%" stop-color="#7c9886" stop-opacity="0.8"/>
      <stop offset="100%" stop-color="#a6bea9" stop-opacity="0.5"/>
    </linearGradient>
    <linearGradient id="xz-ground" x1="0" y1="0" x2="0" y2="1">
      <stop offset="0%" stop-color="#dec8a0"/>
      <stop offset="100%" stop-color="#b89762"/>
    </linearGradient>
    <linearGradient id="xz-wall" x1="0" y1="0" x2="0" y2="1">
      <stop offset="0%" stop-color="#f7edd6"/>
      <stop offset="100%" stop-color="#d6b889"/>
    </linearGradient>
    <linearGradient id="xz-roof" x1="0" y1="0" x2="0" y2="1">
      <stop offset="0%" stop-color="#5a4838"/>
      <stop offset="100%" stop-color="#2a1f15"/>
    </linearGradient>
    <radialGradient id="xz-flower-r" cx="50%" cy="50%" r="50%">
      <stop offset="0%" stop-color="#e89a7a"/>
      <stop offset="100%" stop-color="#a4502f"/>
    </radialGradient>
    <radialGradient id="xz-flower-y" cx="50%" cy="50%" r="50%">
      <stop offset="0%" stop-color="#f7d678"/>
      <stop offset="100%" stop-color="#c89844"/>
    </radialGradient>
    <filter id="xz-noise">
      <feTurbulence type="fractalNoise" baseFrequency="0.85" numOctaves="2" stitchTiles="stitch"/>
      <feColorMatrix values="0 0 0 0 0.15  0 0 0 0 0.10  0 0 0 0 0.05  0 0 0 .06 0"/>
    </filter>
  </defs>

  <!-- 天 -->
  <rect width="1600" height="500" fill="url(#xz-sky)"/>

  <!-- 远山 -->
  <path d="M 0 280 Q 200 200 380 240 Q 540 260 720 200 Q 900 160 1080 220 Q 1280 250 1480 200 Q 1580 180 1600 220 L 1600 360 L 0 360 Z" fill="url(#xz-mtn)"/>
  <path d="M 0 280 Q 200 200 380 240 Q 540 260 720 200 Q 900 160 1080 220 Q 1280 250 1480 200 Q 1580 180 1600 220" stroke="#1b1612" stroke-width="1.5" fill="none" opacity=".4"/>

  <!-- 院墙 -->
  <path d="M 0 480 L 1600 480 L 1600 510 L 0 510 Z" fill="#c9a784" stroke="#1b1612" stroke-width="1.8"/>
  <path d="M 0 470 L 1600 470 L 1600 482 L 0 482 Z" fill="#5a4838" stroke="#1b1612" stroke-width="1.5"/>

  <!-- 地面 -->
  <rect y="510" width="1600" height="490" fill="url(#xz-ground)"/>
  <rect y="510" width="1600" height="490" fill="url(#xz-ground)" filter="url(#xz-noise)" opacity="0.5"/>

  <!-- 青石路 -->
  <path d="M 600 1000 Q 700 900 720 800 Q 740 700 800 660 L 1000 660 Q 1060 700 1080 800 Q 1100 900 1200 1000 Z" fill="#c9b58e" stroke="#1b1612" stroke-width="2" opacity=".7"/>
  <!-- 石路纹（8条，展开） -->
  <line x1="620" y1="950" x2="640" y2="935" stroke="#1b1612" stroke-width="1.2" opacity=".4"/>
  <line x1="695" y1="925" x2="715" y2="910" stroke="#1b1612" stroke-width="1.2" opacity=".4"/>
  <line x1="770" y1="900" x2="790" y2="885" stroke="#1b1612" stroke-width="1.2" opacity=".4"/>
  <line x1="845" y1="875" x2="865" y2="860" stroke="#1b1612" stroke-width="1.2" opacity=".4"/>
  <line x1="920" y1="850" x2="940" y2="835" stroke="#1b1612" stroke-width="1.2" opacity=".4"/>
  <line x1="995" y1="825" x2="1015" y2="810" stroke="#1b1612" stroke-width="1.2" opacity=".4"/>
  <line x1="1070" y1="800" x2="1090" y2="785" stroke="#1b1612" stroke-width="1.2" opacity=".4"/>
  <line x1="1145" y1="775" x2="1165" y2="760" stroke="#1b1612" stroke-width="1.2" opacity=".4"/>

  <!-- 主屋 -->
  <g transform="translate(720 380)">
    <path d="M 0 100 L 0 280 L 360 280 L 360 100 L 180 30 Z" fill="url(#xz-wall)" stroke="#1b1612" stroke-width="2.5" stroke-linejoin="round"/>
    <path d="M -30 110 Q -20 60 180 20 Q 380 60 390 110 L 390 130 Q 180 100 -30 130 Z" fill="url(#xz-roof)" stroke="#1b1612" stroke-width="2.5" stroke-linejoin="round"/>
    <path d="M -20 110 Q 180 80 380 110" stroke="#1b1612" stroke-width="1.8" fill="none"/>
    <!-- 瓦片（11条，Math.sin 展开） -->
    <path d="M -10 95 L -5 105" stroke="#1b1612" stroke-width=".7" opacity=".4"/>
    <path d="M 20 83.7 L 25 92.3" stroke="#1b1612" stroke-width=".7" opacity=".4"/>
    <path d="M 50 74.8 L 55 82.4" stroke="#1b1612" stroke-width=".7" opacity=".4"/>
    <path d="M 80 70.3 L 85 77.3" stroke="#1b1612" stroke-width=".7" opacity=".4"/>
    <path d="M 110 71.2 L 115 78.4" stroke="#1b1612" stroke-width=".7" opacity=".4"/>
    <path d="M 140 77.3 L 145 85.2" stroke="#1b1612" stroke-width=".7" opacity=".4"/>
    <path d="M 170 85.4 L 175 94.3" stroke="#1b1612" stroke-width=".7" opacity=".4"/>
    <path d="M 200 98.9 L 205 109.4" stroke="#1b1612" stroke-width=".7" opacity=".4"/>
    <path d="M 230 109.7 L 235 121.5" stroke="#1b1612" stroke-width=".7" opacity=".4"/>
    <path d="M 260 117.3 L 265 130" stroke="#1b1612" stroke-width=".7" opacity=".4"/>
    <path d="M 290 120 L 295 133" stroke="#1b1612" stroke-width=".7" opacity=".4"/>
    <!-- 门 -->
    <rect x="150" y="170" width="60" height="110" fill="#5a3924" stroke="#1b1612" stroke-width="2.5"/>
    <line x1="180" y1="170" x2="180" y2="280" stroke="#1b1612" stroke-width="2"/>
    <circle cx="170" cy="225" r="2" fill="#d97757"/>
    <circle cx="190" cy="225" r="2" fill="#d97757"/>
    <!-- 左窗 -->
    <rect x="50" y="170" width="60" height="60" fill="#3d5560" stroke="#1b1612" stroke-width="2"/>
    <line x1="80" y1="170" x2="80" y2="230" stroke="#1b1612" stroke-width="1.2"/>
    <line x1="50" y1="200" x2="110" y2="200" stroke="#1b1612" stroke-width="1.2"/>
    <!-- 右窗 -->
    <rect x="250" y="170" width="60" height="60" fill="#3d5560" stroke="#1b1612" stroke-width="2"/>
    <line x1="280" y1="170" x2="280" y2="230" stroke="#1b1612" stroke-width="1.2"/>
    <line x1="250" y1="200" x2="310" y2="200" stroke="#1b1612" stroke-width="1.2"/>
    <!-- 门口黑板 -->
    <rect x="-50" y="200" width="60" height="40" fill="#2a2018" stroke="#1b1612" stroke-width="2"/>
    <rect x="-50" y="200" width="60" height="40" fill="none" stroke="#9b7651" stroke-width="3"/>
    <text x="-20" y="218" font-size="10" fill="#f5ecd7" font-family="serif" text-anchor="middle" font-style="italic">My Home</text>
    <text x="-20" y="232" font-size="9" fill="#f5ecd7" font-family="serif" text-anchor="middle" font-style="italic">My Life Style</text>
    <!-- 灯笼 -->
    <circle cx="80" cy="140" r="8" fill="#d97757" stroke="#1b1612" stroke-width="1.5"/>
    <line x1="80" y1="130" x2="80" y2="125" stroke="#1b1612" stroke-width="1"/>
    <line x1="80" y1="148" x2="80" y2="156" stroke="#1b1612" stroke-width="1"/>
    <circle cx="280" cy="140" r="8" fill="#d97757" stroke="#1b1612" stroke-width="1.5"/>
    <line x1="280" y1="130" x2="280" y2="125" stroke="#1b1612" stroke-width="1"/>
    <line x1="280" y1="148" x2="280" y2="156" stroke="#1b1612" stroke-width="1"/>
  </g>

  <!-- 左侧花圃 (translate 180 600) -->
  <g transform="translate(180 600)">
    <ellipse cx="200" cy="80" rx="220" ry="35" fill="#84a17a" stroke="#1b1612" stroke-width="2" opacity=".7"/>
    <!-- 花 [40,60,r] -->
    <circle cx="40" cy="60" r="14" fill="url(#xz-flower-r)" stroke="#1b1612" stroke-width="1.5"/>
    <circle cx="40" cy="60" r="4" fill="#1b1612" opacity=".4"/>
    <path d="M 32 52 L 48 68 M 48 52 L 32 68" stroke="#1b1612" stroke-width="1" opacity=".4"/>
    <ellipse cx="36" cy="76" rx="4" ry="3" fill="#4f7259" stroke="#1b1612" stroke-width="1" transform="rotate(-20 36 76)"/>
    <!-- 花 [90,50,y] -->
    <circle cx="90" cy="50" r="14" fill="url(#xz-flower-y)" stroke="#1b1612" stroke-width="1.5"/>
    <circle cx="90" cy="50" r="4" fill="#1b1612" opacity=".4"/>
    <path d="M 82 42 L 98 58 M 98 42 L 82 58" stroke="#1b1612" stroke-width="1" opacity=".4"/>
    <ellipse cx="86" cy="66" rx="4" ry="3" fill="#4f7259" stroke="#1b1612" stroke-width="1" transform="rotate(-20 86 66)"/>
    <!-- 花 [130,70,r] -->
    <circle cx="130" cy="70" r="14" fill="url(#xz-flower-r)" stroke="#1b1612" stroke-width="1.5"/>
    <circle cx="130" cy="70" r="4" fill="#1b1612" opacity=".4"/>
    <path d="M 122 62 L 138 78 M 138 62 L 122 78" stroke="#1b1612" stroke-width="1" opacity=".4"/>
    <ellipse cx="126" cy="86" rx="4" ry="3" fill="#4f7259" stroke="#1b1612" stroke-width="1" transform="rotate(-20 126 86)"/>
    <!-- 花 [170,55,r] -->
    <circle cx="170" cy="55" r="14" fill="url(#xz-flower-r)" stroke="#1b1612" stroke-width="1.5"/>
    <circle cx="170" cy="55" r="4" fill="#1b1612" opacity=".4"/>
    <path d="M 162 47 L 178 63 M 178 47 L 162 63" stroke="#1b1612" stroke-width="1" opacity=".4"/>
    <ellipse cx="166" cy="71" rx="4" ry="3" fill="#4f7259" stroke="#1b1612" stroke-width="1" transform="rotate(-20 166 71)"/>
    <!-- 花 [220,70,y] -->
    <circle cx="220" cy="70" r="14" fill="url(#xz-flower-y)" stroke="#1b1612" stroke-width="1.5"/>
    <circle cx="220" cy="70" r="4" fill="#1b1612" opacity=".4"/>
    <path d="M 212 62 L 228 78 M 228 62 L 212 78" stroke="#1b1612" stroke-width="1" opacity=".4"/>
    <ellipse cx="216" cy="86" rx="4" ry="3" fill="#4f7259" stroke="#1b1612" stroke-width="1" transform="rotate(-20 216 86)"/>
    <!-- 花 [260,50,r] -->
    <circle cx="260" cy="50" r="14" fill="url(#xz-flower-r)" stroke="#1b1612" stroke-width="1.5"/>
    <circle cx="260" cy="50" r="4" fill="#1b1612" opacity=".4"/>
    <path d="M 252 42 L 268 58 M 268 42 L 252 58" stroke="#1b1612" stroke-width="1" opacity=".4"/>
    <ellipse cx="256" cy="66" rx="4" ry="3" fill="#4f7259" stroke="#1b1612" stroke-width="1" transform="rotate(-20 256 66)"/>
    <!-- 花 [300,65,y] -->
    <circle cx="300" cy="65" r="14" fill="url(#xz-flower-y)" stroke="#1b1612" stroke-width="1.5"/>
    <circle cx="300" cy="65" r="4" fill="#1b1612" opacity=".4"/>
    <path d="M 292 57 L 308 73 M 308 57 L 292 73" stroke="#1b1612" stroke-width="1" opacity=".4"/>
    <ellipse cx="296" cy="81" rx="4" ry="3" fill="#4f7259" stroke="#1b1612" stroke-width="1" transform="rotate(-20 296 81)"/>
    <!-- 花 [340,55,r] -->
    <circle cx="340" cy="55" r="14" fill="url(#xz-flower-r)" stroke="#1b1612" stroke-width="1.5"/>
    <circle cx="340" cy="55" r="4" fill="#1b1612" opacity=".4"/>
    <path d="M 332 47 L 348 63 M 348 47 L 332 63" stroke="#1b1612" stroke-width="1" opacity=".4"/>
    <ellipse cx="336" cy="71" rx="4" ry="3" fill="#4f7259" stroke="#1b1612" stroke-width="1" transform="rotate(-20 336 71)"/>
  </g>

  <!-- 右侧花圃 (translate 1000 600) -->
  <g transform="translate(1000 600)">
    <ellipse cx="200" cy="80" rx="220" ry="35" fill="#84a17a" stroke="#1b1612" stroke-width="2" opacity=".7"/>
    <!-- 花 [40,60,y] -->
    <circle cx="40" cy="60" r="14" fill="url(#xz-flower-y)" stroke="#1b1612" stroke-width="1.5"/>
    <circle cx="40" cy="60" r="4" fill="#1b1612" opacity=".4"/>
    <path d="M 32 52 L 48 68 M 48 52 L 32 68" stroke="#1b1612" stroke-width="1" opacity=".4"/>
    <ellipse cx="36" cy="76" rx="4" ry="3" fill="#4f7259" stroke="#1b1612" stroke-width="1" transform="rotate(-20 36 76)"/>
    <!-- 花 [90,50,r] -->
    <circle cx="90" cy="50" r="14" fill="url(#xz-flower-r)" stroke="#1b1612" stroke-width="1.5"/>
    <circle cx="90" cy="50" r="4" fill="#1b1612" opacity=".4"/>
    <path d="M 82 42 L 98 58 M 98 42 L 82 58" stroke="#1b1612" stroke-width="1" opacity=".4"/>
    <ellipse cx="86" cy="66" rx="4" ry="3" fill="#4f7259" stroke="#1b1612" stroke-width="1" transform="rotate(-20 86 66)"/>
    <!-- 花 [130,70,r] -->
    <circle cx="130" cy="70" r="14" fill="url(#xz-flower-r)" stroke="#1b1612" stroke-width="1.5"/>
    <circle cx="130" cy="70" r="4" fill="#1b1612" opacity=".4"/>
    <path d="M 122 62 L 138 78 M 138 62 L 122 78" stroke="#1b1612" stroke-width="1" opacity=".4"/>
    <ellipse cx="126" cy="86" rx="4" ry="3" fill="#4f7259" stroke="#1b1612" stroke-width="1" transform="rotate(-20 126 86)"/>
    <!-- 花 [170,55,y] -->
    <circle cx="170" cy="55" r="14" fill="url(#xz-flower-y)" stroke="#1b1612" stroke-width="1.5"/>
    <circle cx="170" cy="55" r="4" fill="#1b1612" opacity=".4"/>
    <path d="M 162 47 L 178 63 M 178 47 L 162 63" stroke="#1b1612" stroke-width="1" opacity=".4"/>
    <ellipse cx="166" cy="71" rx="4" ry="3" fill="#4f7259" stroke="#1b1612" stroke-width="1" transform="rotate(-20 166 71)"/>
    <!-- 花 [220,70,r] -->
    <circle cx="220" cy="70" r="14" fill="url(#xz-flower-r)" stroke="#1b1612" stroke-width="1.5"/>
    <circle cx="220" cy="70" r="4" fill="#1b1612" opacity=".4"/>
    <path d="M 212 62 L 228 78 M 228 62 L 212 78" stroke="#1b1612" stroke-width="1" opacity=".4"/>
    <ellipse cx="216" cy="86" rx="4" ry="3" fill="#4f7259" stroke="#1b1612" stroke-width="1" transform="rotate(-20 216 86)"/>
    <!-- 花 [260,50,y] -->
    <circle cx="260" cy="50" r="14" fill="url(#xz-flower-y)" stroke="#1b1612" stroke-width="1.5"/>
    <circle cx="260" cy="50" r="4" fill="#1b1612" opacity=".4"/>
    <path d="M 252 42 L 268 58 M 268 42 L 252 58" stroke="#1b1612" stroke-width="1" opacity=".4"/>
    <ellipse cx="256" cy="66" rx="4" ry="3" fill="#4f7259" stroke="#1b1612" stroke-width="1" transform="rotate(-20 256 66)"/>
    <!-- 花 [300,65,r] -->
    <circle cx="300" cy="65" r="14" fill="url(#xz-flower-r)" stroke="#1b1612" stroke-width="1.5"/>
    <circle cx="300" cy="65" r="4" fill="#1b1612" opacity=".4"/>
    <path d="M 292 57 L 308 73 M 308 57 L 292 73" stroke="#1b1612" stroke-width="1" opacity=".4"/>
    <ellipse cx="296" cy="81" rx="4" ry="3" fill="#4f7259" stroke="#1b1612" stroke-width="1" transform="rotate(-20 296 81)"/>
    <!-- 花 [340,55,y] -->
    <circle cx="340" cy="55" r="14" fill="url(#xz-flower-y)" stroke="#1b1612" stroke-width="1.5"/>
    <circle cx="340" cy="55" r="4" fill="#1b1612" opacity=".4"/>
    <path d="M 332 47 L 348 63 M 348 47 L 332 63" stroke="#1b1612" stroke-width="1" opacity=".4"/>
    <ellipse cx="336" cy="71" rx="4" ry="3" fill="#4f7259" stroke="#1b1612" stroke-width="1" transform="rotate(-20 336 71)"/>
  </g>

  <!-- 茶桌 -->
  <g transform="translate(220 800)">
    <ellipse cx="60" cy="50" rx="60" ry="14" fill="#a4502f" stroke="#1b1612" stroke-width="2"/>
    <rect x="55" y="50" width="10" height="40" fill="#6b4c30" stroke="#1b1612" stroke-width="1.5"/>
    <ellipse cx="40" cy="40" rx="14" ry="8" fill="#3a2812" stroke="#1b1612" stroke-width="1.5"/>
    <ellipse cx="40" cy="36" rx="6" ry="3" fill="#1b1612"/>
    <path d="M 54 40 Q 62 38 62 32" stroke="#1b1612" stroke-width="1.5" fill="none"/>
    <ellipse cx="78" cy="44" rx="6" ry="3" fill="#f5ecd7" stroke="#1b1612" stroke-width="1.2"/>
    <ellipse cx="92" cy="46" rx="6" ry="3" fill="#f5ecd7" stroke="#1b1612" stroke-width="1.2"/>
    <path d="M 36 28 Q 30 20 36 14 M 44 28 Q 50 20 44 14" stroke="#a8c4cb" stroke-width="1.5" fill="none" opacity=".7" stroke-linecap="round"/>
  </g>

  <!-- 猫 -->
  <g transform="translate(1340 870)">
    <ellipse cx="30" cy="40" rx="22" ry="12" fill="#dec8a0" stroke="#1b1612" stroke-width="1.5"/>
    <circle cx="14" cy="32" r="10" fill="#dec8a0" stroke="#1b1612" stroke-width="1.5"/>
    <path d="M 8 24 L 6 18 L 12 22 Z M 20 24 L 22 18 L 16 22 Z" fill="#dec8a0" stroke="#1b1612" stroke-width="1"/>
    <circle cx="11" cy="31" r="1" fill="#1b1612"/>
    <circle cx="18" cy="31" r="1" fill="#1b1612"/>
    <path d="M 14 34 L 13 36 L 16 36 L 15 34" stroke="#1b1612" stroke-width="0.7" fill="#a4502f"/>
    <path d="M 52 42 Q 62 38 64 32" stroke="#1b1612" stroke-width="1.5" fill="none"/>
  </g>

  <!-- 鸟笼 -->
  <g transform="translate(1140 380)">
    <ellipse cx="20" cy="50" rx="18" ry="6" fill="#6b4c30" stroke="#1b1612" stroke-width="1.5"/>
    <path d="M 4 50 Q 4 25 20 14 Q 36 25 36 50 Z" fill="none" stroke="#1b1612" stroke-width="2"/>
    <!-- 笼条（6根，展开） -->
    <line x1="6" y1="48" x2="6" y2="23.5" stroke="#1b1612" stroke-width="1.2"/>
    <line x1="11.5" y1="48" x2="11.5" y2="20.5" stroke="#1b1612" stroke-width="1.2"/>
    <line x1="17" y1="48" x2="17" y2="17.5" stroke="#1b1612" stroke-width="1.2"/>
    <line x1="22.5" y1="48" x2="22.5" y2="17.5" stroke="#1b1612" stroke-width="1.2"/>
    <line x1="28" y1="48" x2="28" y2="20.5" stroke="#1b1612" stroke-width="1.2"/>
    <line x1="33.5" y1="48" x2="33.5" y2="23.5" stroke="#1b1612" stroke-width="1.2"/>
    <line x1="20" y1="14" x2="20" y2="2" stroke="#1b1612" stroke-width="1.5"/>
    <circle cx="20" cy="0" r="2" fill="#d97757"/>
    <ellipse cx="20" cy="35" rx="5" ry="4" fill="#84a17a" stroke="#1b1612" stroke-width="1"/>
    <circle cx="22" cy="33" r="1" fill="#1b1612"/>
  </g>
</svg>
